<svg xmlns="http://www.w3.org/2000/svg" viewBox="0 0 500 500"><path d="M192.8 293.2c-10.8-8.5-22.4-16.7-30.3-28.2-16.6-20.3-29.4-43.7-38.1-68.4-5.3-16-7.1-33.2-13.9-48.7-7.1-11.2 1.2-23.4 13.5-27 5.5-1.1 15.1-6.2 3.5-2.5-10.4 7.6-11.4-6.9-.7-7.8 7.3-1 10-6.9 7.5-12.3-7.8-5.1 18.9-10.7 5.5-18.3-14-15.1 19.6-18 11.3-.9-2 13.2 23.5-2.4 17.6 12.8 6 7.3 22.5 1.7 22.1 11.9 8.8.6 11.8 8 20 8.5 8.5 3.8 24 6.9 26.8 16.5-8.4 6.7-28-13.8-28.9 4.7 2.6 27.3 1.9 55.5 11.9 81.6 4.7 15.8 16.2 28.2 26.6 40.5 9.9 12 23.3 20.5 37 27.6 12 5.7 24.9 9.4 38 11.8 5.3-4.1 14.7-19.1 23-12.8.4 7.2-16.4 15-.8 14.2 9.2-2.8 15.6 7.1 23.1-1.8 7 8.3 29-5.3 24 11.6-6.7 4.3-16.5 1.7-23.2 7.7-11.1-5.5-19.9 4.9-32.1 3.6-13.6 2.4-27.5 3.4-41.3 3.4-22.6-1.8-45.8-2.5-67.3-10.4-12.3-3.5-24.1-10.4-34.8-17.3zm19.2 8.3c11.8 5.1 23.4 10.5 36.4 12.2 20.6 2.9 41.9 7.3 62.5 3.3-9.4-4.2-19 1.6-28.4-3-11.2 2.4-23.2-.6-34.5-2.1-12.9-5.8-26.9-9.7-39-17.2-15.1-5.5 7.8 7.1 11.9 8.1 9.5 5.4-10.4-2.8-13.2-5-7.9-4.4-8.9-3.5-.8 1 1.7.9 3.3 1.9 5.1 2.7zm-22.6-15.9c11.5 4.3-.1-8.1-5.3-7.4-2.3-4-8.9-6.6-4.3-8.8-8.3 2.9-8.7-11-12.7-9-8.8-2.8-3.4-12.7-14-18.7-1-6.4-10.4-11.9-13.5-21.6-1.3-4.9-10.7-19.1-5-5.9 4.9 12.7 13.5 23.6 20.7 34.4 5.6 10.3 12.2 21.1 22.3 27.6 3.7 3.3 7 8.3 11.8 9.4zm50.6 21.3c4.7 3 27.5 6.5 13.2 1.2-2.4.5-26.4-6.8-13.2-1.2zm-52-42.2c5.5 4.2 22.3.5 8.4-2.5-6.3-3.3-20.4-5.6-10.8 2l2.4.5zm26.7 14.2c13.5 3.8-11.3-8.5-3.3-1.4l1.8.8 1.5.6zm.1-7.2c9.8 1.3-11.7-6.7-2.2-.7l2.2.7zm34.1 21c9.2-5.5 6.1 12.8 15.5 1.5 9.3-6.8-8 8.4 3.4 1.2 8.3-5.5 20.5 2.6 28.2 5.3 5.5-.3 10.9 4.8 16.6 1.7 10.9-2.9-21.4-4.4-12.9-9.6-10 2.9-17.4-3.5-22.3-9.9-11.2-2.6-24.2-8.3-29.8-18.3-2.3-3.7 3.3.5-2-5.6-6.8-6-10.1-12.8-14.7-20.1-5.4-2.9-6.1-11.4-6.6-.3 0-7-6.5-11.7-8.2-9.8 0-6.8 7.1-3.4 2.1-8.4-1.1-7-4.6-14.3-5.6-22.2-1.6-3.8-.2-12-5.6-3.3-2 9.1-.6-11.2 2.4-4.5 4-6.8-1.4-6-1.7-5.1 2.6-5.8 1.6-14-.7-10.8 1.4-6.1 2.2-22.5-2.1-19.6 2.6-6.4 4.9-29.3-6.3-20.6-4.5.1-12.4 1.6-16.1 3.5 11.7 6.4-1.2 2.3-5.9 1.3-.6 6-5.3 3.4-11.2 3.4 9.4 1.2-4.6 9.6-10 6.3-7 3.3 6 11.7.1 14.3.7 3.9-10.7-1.4-9.8 7.6-6.8-2.9-.9 10.7 2.5 6.1 11.5 3.1 8.1 10.2 8.4 17-1.9 3.9-9.3-9.3-1.6-8.7-6-9.8-6.7-3.5-11.7 1-1.2.3 12.8 6.5 4 9.5 7.7 1.2 7.9 7.9 9.5 12.2 4.6 4.8 3.7-5.3 9.2.5-3.5-5.2-18.6-14.5-6.4-11.5-.1-5.2-2.2-9.4 1.5-9.3 3.7-6.7-3.9 16.4 4.4 8 2.3-1 2.9-6.7 7 .5 6 5.9 2.2 10.2-6.3 4.8 1.5 5.1 11.3 7 9.5 15 2 7.1 4.7 4.5 7.1 4 1.9 6.9 2.9 1.8 3-1.5 8.5 1.8 6.5 6.9 9.2 10.4 5.9 2.7-8.4-18 1.7-6.2 10.6 9.6 4 13.6-5.6 12.1 6-.5 8 8.2 15.5 7.9 6.9 3.3 11.6 15.9-.3 10.6-4.1-3.7-18.7-8.3-6.8-1.2 11 5.1 19.7 8.1 30.3 14.5 7.6 5.4 10.9 11.6 13.7 12.8-6.4 3-19.2-2.4-9.7-4.1-6-1.1-12.6-4.1-6.9 3.3 4.8 4.1 17.2 3.6 19.4 4.1-1.9 4.1-5.1 4.5.1 4.8-5.6 3.1 2 3.6 2.5 5.4zm-11.8-33.3c-3.5-3.7-4.4-10.5-.6-4.6 1.9.9 6.2 11.3.6 4.6zm-22.4-37c-4.2-9.3 3-5.1.9 1.5l-.9-1.5zm-38.5-25.6c-1.9-3.1-5-12.1-4-14.8.9 4.5 9.5 19.3 4.2 6.1-5.8-11 7 3.6 8.3 6.3.6 2.7-3.6-.7-.7 5.7-5.2-7.3-3 4-7.8-3.3zm-19.4-16.3c-4.4-4.4-7.6-8.4.2-2.7 3 .1-6.7-9.2.7-3 7.9 1.5 3.9 12.8-.9 5.7zm2.7-6.7c-12.9-11.4 16.1 6 2.1 2.1l-2.1-2.1zm36.8 21.4c-5.6-3.3-1.5-23.5.4-9.7 5.4-1.8-.3 7.1 3.7 7-.5 5.6-2.4 7.6-4.1 2.7zM162 170c-8.3-11.4 24 11.5 5.3 2.9-1.9-.5-4.3-.7-5.3-2.9zm1.3-4.3c4.9-1.1 20.3 8.6 6.2 2.8-1.6-1.8-5-1-6.2-2.8zm42.1 21c.5-9.8 2.9-5.9 0 1.4v-1.4zm-38.5-24.4c2-2.9-5.3-13.3 1.1-3.7 2.8 2.2 8 3.7 3.4 4.6 7.2 6.3-1.8 1.7-4.5-.9zm32-5.3c-2.6-4.5 3.2-19.8 3.9-10.3-2.7 7.4-.8 11.5 1.1 1.6 3.5-7.8-.7 15.4-5 8.7zm10.6 109.5c7.3 1.9 7.3-1.1.7-2-3.5-3.3-14.8-6.8-4.7-.4.6 1.7 2.7 1.6 4 2.4zm-25.9-17.2c4 3 15.2 8.5 5.7 1.1 3.2-3.7-6.1-5.7-3-8.1-7.8-4.8-6.2-4.4-.7-4.2-9.4-4.2 1.4-3.9.8-6-3.6-.7-18-6.4-9.5.5-8.6-4.4-2 1.6-4.6 1-8.8-2.4 7.8 6.7-1.4 4.4 5 4 13.6 10.2 2.1 4.2-1.5 2.2 8.2 5.5 10.6 7.1zm91.3 53.5c3.9-3.7.2 6 6.4-.9.1-4.9-.2-7.8-7.2-1.8-1.9 1.1-2.8 5.6.8 2.7zm-63.1-40.5c4.3 3.8 19.7 2.8 5.2.5-2.2-3.2-13.7-2.4-5.2-.5zm-70.7-47.4c-6.2-8.9-3.9-12.9-9.9-20.1-1.1-5.6-10.3-18.1-4.7-4.8 5.1 7.7 6.6 19.8 14.6 24.9zm150.6 90.5c6.5-4.2-1.5-3.6-1.2.4l1.2-.4zm10.5 2.8c8.4-6-5.1-1.2-1.7 1.1l1.7-1.1zM162 218.9c6.1 1.4 24.5 15.1 13.6 1-5.5-1.6-2.2-15.2-7.9-12.8 3.8 6.3 3.1 9-4.8 5-10-4.9-5.6 2.4-3.7 4.4-2.6.6 3.6 2.3 2.8 2.4zm-27.9-22c1.1-4.5-10.1-24.9-5.3-10.2 1.8 3 1.6 8.9 5.3 10.2zm191.6 105.7c6.1-1.2 19.9 3.1 22.1-1.6-7.4-.2-25.5-5.2-26.3 1.2l1.6.3 2.6.1zM136.9 170.8c6.1-2.4-11.1-5-1.2-.4l1.2.4zm-19.1-21.3c-1.1-6.3-1-17.4 9.6-13.7-14.1 2.8 9.8 17.5 6.8 5.9 5.9.3 11.6-3.5 8.5 2.3 11.7-1.3 19.8-11.4 31.1-10 8.8-1.2 18.4-2 27.9-5.6 7.8-.6 15.3-8.9 11-13.9-10.6-.9-21.7.4-33.5 2.8-13 2.7-24.8 7.8-37.9 10-12.8 1.7 2.6 4.7-1.1 5.4-6.7 2.3 8 3.9-.9 6.3-5.4-1-11.1-2.9-8.8-8.7-12.3 1.6-23 6.7-13.3 19.1l.6.1zm29.6-15.1c2.9-10.6 15.4 8.7 4.7 1.4-1.3-.9-3.4-1.7-4.7-1.4zm5.8-5c.4-4.9 12.1 2.6 1.9 1.8l-1.9-1.8zm9-4.2c4.4-5.3 24.8-3.4 9.9-.5-4-3-7.1 1.8-9.9.5zm34.2-4.1c2.8-7.2 10.7-2.9 1.3-1.5.2.8-.3 3.8-1.3 1.5zm177.9 181.6c6.6 0 20-2.1 5.6-2-2.2.3-13.1.2-5.6 2zM146.9 158.2c5.3-.4 8.4-5.9-1-5.6-14.6-1.5 12.8 5-1.9 3.1-2 1.4 2.8 2.9 2.9 2.5zm-7.5-42.1c9.5-3.2 22.6-6.9 27.1 1.6-4.6-5.5-1.9-10.9 2.5-2.9 6.1 8.2 9.2-3.7 5.2-6.4 4.5 5.6 9.7 8.3 3 .4 7.2-8.7-14.5 1.1-19.4 1-2.4 1-24.5 5.6-18.4 6.3zm5.6-10.7c5.4-4.1 18.8 2.4 10.2-4.1-.8-.8-18.8 4.9-10.2 4.1zm19.8.8c6.4.2-2.7-8.6 4.8-4.6-1.2-4.1-8.8-4.8-12.5-6.5-2.1 3.7 4.3 11.1 7.7 11.1zm-8.2-16.1c10.3-1.4-2.6-4.4-2.1-.1l2.1.1zm-15.2-11.8c-7.2-9.4 13.6 1.6 6.2-8.3-6.1-4.9-12 5.5-6.2 8.3zm92.7 49.9c3.3-5.9-13.7-7.9-2.2-2.1 1 .4.8 2.5 2.2 2.1zM166.9 346.7c-.7 2.9-1.2 7.7-1.4 14.6 0 1.3-.6 2-1.8 2-1.2 0-2.1-.6-2.5-1.7-1.3-3.1-2.5-5.3-3.7-6.6-1.4-1.5-3.2-2.4-5.5-2.7-2.5-.4-8.6-.6-18.4-.6-2.2 0-3.7.2-4.4.7-.4.3-.6.9-.6 1.9v29.3c0 1 .6 1.5 1.9 1.4 3.8 0 9.4-.3 16.7-.8 1.4-.2 2.4-.6 2.9-1.4.5-.8 1-2.7 1.5-5.9.3-1.7 1.3-2.4 3-2 1.5.3 2.1 1 1.9 2-1.2 5.9-1.6 13.5-1.2 22.9 0 1.1-.7 1.7-2.1 1.8-1.2.1-2-.5-2.3-1.9-1.1-5.4-3.2-8.3-6.2-8.6-3-.4-8-.5-14.9-.5-.8 0-1.2.3-1.2.8v29.1c0 2.2.8 3.6 2.4 4.4 1.3.6 3.9 1.2 8.1 1.7 2.1.2 3 1.1 2.8 2.8-.3 1.4-2.2 2-5.7 1.7-10.2-.8-18.7-.8-25.3.1-1.9.3-2.8-.5-2.8-2.3 0-1.1.9-1.8 2.8-1.9 4.2-.5 6.3-4.2 6.3-11.1v-55.4c0-2.8-.5-5-1.5-6.6-1-1.5-2.9-2.9-5.7-4.2-1.7-.8-2.4-1.8-1.9-3.2.2-.8.6-1.3 1-1.4.4-.1 1.6 0 3.4.3 2.7.4 9.1.6 19.2.6 11.9 0 22.2-.3 30.9-.8 2.9-.2 4.3.1 4.3.7v.8zM208.8 428.8c0 1.7-1 2.5-2.9 2.3-6-.6-13.3-.5-22.1.3-1.8.2-2.9.1-3.3-.1-.4-.3-.6-1-.6-2.1 0-1 1.2-1.9 3.5-2.6 2.4-.7 3.5-2.8 3.5-6.4v-58.6c0-3.5-.5-6.1-1.5-7.7-1-1.6-2.8-2.9-5.3-3.8-1.3-.5-2-1.1-2-2 0-1.3 1-2.3 2.9-2.9 2.9-.9 6-2.4 9.1-4.4 2.6-1.6 4.2-2.3 4.9-2.3 1.6 0 2.4 1.1 2.4 3.3 0-.2-.1 2-.3 6.5-.1 4.3-.2 8.5-.1 12.6l.3 57.8c0 2.6.6 4.5 1.9 5.7 1.3 1.2 3.5 2 6.7 2.4 2 0 2.9.8 2.9 2zM267.4 425c0 .9-1.6 2.3-4.9 4.1-3.3 1.8-5.9 2.8-7.9 2.8-1.7 0-3.2-.8-4.5-2.5-1.3-1.6-2.2-2.5-2.7-2.5-.4 0-2.4.9-6.1 2.7-3.7 1.8-7.4 2.7-11.2 2.7-3.5 0-6.5-1-8.9-3.1-2.6-2.3-3.9-5.4-3.9-9.3 0-7.5 8.5-12.8 25.6-16 2.9-.6 4.4-1.7 4.5-3.6l.1-4.1c.3-7.1-2.9-10.6-9.4-10.6-1.9 0-3.6 1.7-5.3 5-1.7 3.3-4 5.1-7.2 5.4-3.5.3-5.3-1.1-5.3-4.5 0-2.1 2.6-4.5 7.9-7.2 5.5-2.9 10.8-4.3 15.9-4.3 8.8 0 13.1 4.2 13 12.5l-.3 26.7c0 2.8 1.1 4.2 3.6 4.2.5 0 1.4-.1 2.7-.3 1.3-.2 2.1-.3 2.3-.3 1.3-.3 2 .5 2 2.2zm-20-14.8c0-1.1-.2-1.8-.7-2.1-.5-.3-1.4-.4-2.6-.2-10.4 1.9-15.6 5.2-15.6 10.2 0 5 2.7 7.4 8.1 7.4 2.2 0 4.4-.4 6.7-1.2 2.7-1 4-2.1 4-3.4l.1-10.7zM315.5 417.5c0 4.6-1.8 8.2-5.3 10.9-3.5 2.7-8.3 4-14.4 4-4.1 0-8.1-.4-12.2-1.3-3.5-.8-5.5-1.5-6.1-2.1-.3-.6-.5-3.6-.5-8.9 0-2.3.5-3.5 1.6-3.6 1-.1 1.9.4 2.7 1.7 3.2 5.7 8.5 8.5 15.7 8.5 6.1 0 9.1-2.1 9.1-6.3 0-1.9-.7-3.4-2.1-4.7-1.5-1.4-4.4-3.1-8.8-5-6.3-2.8-10.5-5.3-12.6-7.4-2.3-2.2-3.4-5.3-3.4-9.1 0-4.7 1.8-8.3 5.4-10.9 3.3-2.5 7.8-3.8 13.3-3.8 3.5 0 6.7.3 9.6.8 3.1.6 4.7 1.2 4.9 2.1.3 2.4 1.1 5.9 2.1 10.5.1.6-.5 1-1.8 1.4-1.4.3-2.4.1-2.8-.7-3.4-5.6-7.7-8.3-12.9-8.3-5.9 0-8.9 1.9-8.9 5.7 0 2.1.8 3.8 2.4 5 1.4 1.1 4.8 2.8 10 5.1 5.5 2.4 9.3 4.5 11.3 6.4 2.4 2.6 3.7 5.9 3.7 10zM391.6 428.9c0 1.5-1 2.3-3 2.4-3 0-7 .3-11.8.6-2.4.5-4.1.2-5.2-.9-6.8-7.3-12.6-15-17.3-23-.4-.7-.9-1-1.5-1-.7 0-2 .6-3.8 1.9-2 1.1-3 2.7-3 4.8 0 1.5 0 3.6.1 6.3.1 2.8.8 4.6 2.1 5.4.9.6 3 1.1 6.3 1.4 2 .3 3 1 3 2.3 0 1-.2 1.6-.5 1.8-.3.2-1.2.3-2.6.2-4.3-.4-11.6-.2-21.9.6-2.6.2-4-.1-4.2-1-.1-.3-.1-.7-.1-1.3 0-1.3 1.3-2.4 4-3 2.4-.6 3.6-3.4 3.6-8.4v-56.6c0-3.5-.3-6-1-7.4-.9-1.8-2.9-3.2-6-4.1-1.4-.5-2.1-1.1-2.1-2 0-1.3 1-2.2 3-2.9 3.2-1.1 6.3-2.6 9.3-4.5 2.4-1.6 3.8-2.3 4.4-2.3 1.8 0 2.7 1.1 2.7 3.4 0-.3 0 1.8-.1 6.4 0 3.1-.1 7.4-.1 12.7l.1 40.5c0 1.1.3 1.7.9 1.7.6 0 1.6-.6 3-1.7 3.6-2.8 8-6.5 13.2-11 1-1.1 1.6-1.9 1.6-2.6 0-1.2-1.7-2-5.2-2.5-1.5-.2-2.2-1-2.1-2.5.1-1.5.9-2.2 2.3-1.9 3.1.4 7.6.7 13.6.7 4.1 0 8.3.1 12.4.1 1.3 0 2 .8 2 2.4 0 1.5-1.1 2.3-3.2 2.4-3.3.1-6.5.9-9.4 2.3-4.1 1.9-8.5 5.1-13.1 9.8-.3.3-.5.6-.5 1 0 .6.7 2.1 2.2 4.3 5.4 8.2 10.5 14.4 15.3 18.6 3.1 2.6 5.9 3.9 8.6 3.9 2 0 3.2.1 3.7.4.1.3.3 1.1.3 2.3z"/></svg>
